{
    "asset" : {
        "generator" : "Khronos glTF Blender I/O v1.3.48",
        "version" : "2.0"
    },
    "scene" : 0,
    "scenes" : [
        {
            "name" : "Scene",
            "nodes" : [
                0
            ]
        }
    ],
    "nodes" : [
        {
            "mesh" : 0,
            "name" : "Oven"
        }
    ],
    "meshes" : [
        {
            "name" : "Cube",
            "primitives" : [
                {
                    "attributes" : {
                        "POSITION" : 0,
                        "NORMAL" : 1,
                        "TEXCOORD_0" : 2
                    },
                    "indices" : 3
                }
            ]
        }
    ],
    "accessors" : [
        {
            "bufferView" : 0,
            "componentType" : 5126,
            "count" : 205,
            "max" : [
                7.736289978027344,
                8.822023391723633,
                6.669450759887695
            ],
            "min" : [
                -9.129137992858887,
                0.023806095123291016,
                -7.71189546585083
            ],
            "type" : "VEC3"
        },
        {
            "bufferView" : 1,
            "componentType" : 5126,
            "count" : 205,
            "type" : "VEC3"
        },
        {
            "bufferView" : 2,
            "componentType" : 5126,
            "count" : 205,
            "type" : "VEC2"
        },
        {
            "bufferView" : 3,
            "componentType" : 5123,
            "count" : 324,
            "type" : "SCALAR"
        }
    ],
    "bufferViews" : [
        {
            "buffer" : 0,
            "byteLength" : 2460,
            "byteOffset" : 0
        },
        {
            "buffer" : 0,
            "byteLength" : 2460,
            "byteOffset" : 2460
        },
        {
            "buffer" : 0,
            "byteLength" : 1640,
            "byteOffset" : 4920
        },
        {
            "buffer" : 0,
            "byteLength" : 648,
            "byteOffset" : 6560
        }
    ],
    "buffers" : [
        {
            "byteLength" : 7208,
            "uri" : "data:application/octet-stream;base64,"
        }
    ]
}
