{
    "asset" : {
        "generator" : "Khronos glTF Blender I/O v1.3.48",
        "version" : "2.0"
    },
    "scene" : 0,
    "scenes" : [
        {
            "name" : "Scene",
            "nodes" : [
                0,
                1
            ]
        }
    ],
    "nodes" : [
        {
            "mesh" : 0,
            "name" : "S_Dzban_Part1",
            "scale" : [
                2.7714569568634033,
                0.5712523460388184,
                2.7714569568634033
            ],
            "translation" : [
                0,
                18.69752311706543,
                3.9183349609375
            ]
        },
        {
            "mesh" : 1,
            "name" : "S_Dzban_Part2",
            "translation" : [
                0,
                18.93218421936035,
                3.918299913406372
            ]
        }
    ],
    "meshes" : [
        {
            "name" : "Cylinder.007",
            "primitives" : [
                {
                    "attributes" : {
                        "POSITION" : 0,
                        "NORMAL" : 1,
                        "TEXCOORD_0" : 2
                    },
                    "indices" : 3
                }
            ]
        },
        {
            "name" : "Cylinder.008",
            "primitives" : [
                {
                    "attributes" : {
                        "POSITION" : 4,
                        "NORMAL" : 5,
                        "TEXCOORD_0" : 6
                    },
                    "indices" : 7
                }
            ]
        }
    ],
    "accessors" : [
        {
            "bufferView" : 0,
            "componentType" : 5126,
            "count" : 338,
            "max" : [
                1.3603626489639282,
                8.706046104431152,
                1.3603626489639282
            ],
            "min" : [
                -1.3603628873825073,
                -1.6672048568725586,
                -1.3603628873825073
            ],
            "type" : "VEC3"
        },
        {
            "bufferView" : 1,
            "componentType" : 5126,
            "count" : 338,
            "type" : "VEC3"
        },
        {
            "bufferView" : 2,
            "componentType" : 5126,
            "count" : 338,
            "type" : "VEC2"
        },
        {
            "bufferView" : 3,
            "componentType" : 5123,
            "count" : 1428,
            "type" : "SCALAR"
        },
        {
            "bufferView" : 4,
            "componentType" : 5126,
            "count" : 703,
            "max" : [
                4.062223434448242,
                6.290123462677002,
                4.062224864959717
            ],
            "min" : [
                -4.0622239112854,
                -1,
                -6.148989677429199
            ],
            "type" : "VEC3"
        },
        {
            "bufferView" : 5,
            "componentType" : 5126,
            "count" : 703,
            "type" : "VEC3"
        },
        {
            "bufferView" : 6,
            "componentType" : 5126,
            "count" : 703,
            "type" : "VEC2"
        },
        {
            "bufferView" : 7,
            "componentType" : 5123,
            "count" : 1992,
            "type" : "SCALAR"
        }
    ],
    "bufferViews" : [
        {
            "buffer" : 0,
            "byteLength" : 4056,
            "byteOffset" : 0
        },
        {
            "buffer" : 0,
            "byteLength" : 4056,
            "byteOffset" : 4056
        },
        {
            "buffer" : 0,
            "byteLength" : 2704,
            "byteOffset" : 8112
        },
        {
            "buffer" : 0,
            "byteLength" : 2856,
            "byteOffset" : 10816
        },
        {
            "buffer" : 0,
            "byteLength" : 8436,
            "byteOffset" : 13672
        },
        {
            "buffer" : 0,
            "byteLength" : 8436,
            "byteOffset" : 22108
        },
        {
            "buffer" : 0,
            "byteLength" : 5624,
            "byteOffset" : 30544
        },
        {
            "buffer" : 0,
            "byteLength" : 3984,
            "byteOffset" : 36168
        }
    ],
    "buffers" : [
        {
            "byteLength" : 40152,
            "uri" : "data:application/octet-stream;base64,"
        }
    ]
}
