{
    "asset" : {
        "generator" : "Khronos glTF Blender I/O v1.3.48",
        "version" : "2.0"
    },
    "scene" : 0,
    "scenes" : [
        {
            "name" : "Scene",
            "nodes" : [
                0
            ]
        }
    ],
    "nodes" : [
        {
            "mesh" : 0,
            "name" : "Ammo_Jar_Box"
        }
    ],
    "meshes" : [
        {
            "name" : "Cylinder.002",
            "primitives" : [
                {
                    "attributes" : {
                        "POSITION" : 0,
                        "NORMAL" : 1,
                        "TEXCOORD_0" : 2
                    },
                    "indices" : 3
                }
            ]
        }
    ],
    "accessors" : [
        {
            "bufferView" : 0,
            "componentType" : 5126,
            "count" : 2159,
            "max" : [
                0.24444520473480225,
                0.1592850685119629,
                0.34980154037475586
            ],
            "min" : [
                -0.24686148762702942,
                -0.145740807056427,
                -0.353760302066803
            ],
            "type" : "VEC3"
        },
        {
            "bufferView" : 1,
            "componentType" : 5126,
            "count" : 2159,
            "type" : "VEC3"
        },
        {
            "bufferView" : 2,
            "componentType" : 5126,
            "count" : 2159,
            "type" : "VEC2"
        },
        {
            "bufferView" : 3,
            "componentType" : 5123,
            "count" : 8124,
            "type" : "SCALAR"
        }
    ],
    "bufferViews" : [
        {
            "buffer" : 0,
            "byteLength" : 25908,
            "byteOffset" : 0
        },
        {
            "buffer" : 0,
            "byteLength" : 25908,
            "byteOffset" : 25908
        },
        {
            "buffer" : 0,
            "byteLength" : 17272,
            "byteOffset" : 51816
        },
        {
            "buffer" : 0,
            "byteLength" : 16248,
            "byteOffset" : 69088
        }
    ],
    "buffers" : [
        {
            "byteLength" : 85336,
            "uri" : "data:application/octet-stream;base64,"
        }
    ]
}
