{
    "asset" : {
        "generator" : "Khronos glTF Blender I/O v1.3.48",
        "version" : "2.0"
    },
    "scene" : 0,
    "scenes" : [
        {
            "name" : "Scene",
            "nodes" : [
                0
            ]
        }
    ],
    "nodes" : [
        {
            "mesh" : 0,
            "name" : "Gun",
            "translation" : [
                0,
                -0.22024382650852203,
                -0.30166828632354736
            ]
        }
    ],
    "meshes" : [
        {
            "name" : "Cylinder.004",
            "primitives" : [
                {
                    "attributes" : {
                        "POSITION" : 0,
                        "NORMAL" : 1,
                        "TEXCOORD_0" : 2
                    },
                    "indices" : 3
                }
            ]
        }
    ],
    "accessors" : [
        {
            "bufferView" : 0,
            "componentType" : 5126,
            "count" : 5136,
            "max" : [
                0.9624240398406982,
                1.089658498764038,
                2.4198427200317383
            ],
            "min" : [
                -0.9624243378639221,
                -0.8822582960128784,
                -2.3080170154571533
            ],
            "type" : "VEC3"
        },
        {
            "bufferView" : 1,
            "componentType" : 5126,
            "count" : 5136,
            "type" : "VEC3"
        },
        {
            "bufferView" : 2,
            "componentType" : 5126,
            "count" : 5136,
            "type" : "VEC2"
        },
        {
            "bufferView" : 3,
            "componentType" : 5123,
            "count" : 11496,
            "type" : "SCALAR"
        }
    ],
    "bufferViews" : [
        {
            "buffer" : 0,
            "byteLength" : 61632,
            "byteOffset" : 0
        },
        {
            "buffer" : 0,
            "byteLength" : 61632,
            "byteOffset" : 61632
        },
        {
            "buffer" : 0,
            "byteLength" : 41088,
            "byteOffset" : 123264
        },
        {
            "buffer" : 0,
            "byteLength" : 22992,
            "byteOffset" : 164352
        }
    ],
    "buffers" : [
        {
            "byteLength" : 187344,
            "uri" : "data:application/octet-stream;base64,"
        }
    ]
}
