{
    "asset" : {
        "generator" : "Khronos glTF Blender I/O v1.3.48",
        "version" : "2.0"
    },
    "scene" : 0,
    "scenes" : [
        {
            "name" : "Scene",
            "nodes" : [
                0
            ]
        }
    ],
    "nodes" : [
        {
            "mesh" : 0,
            "name" : "Rifle",
            "translation" : [
                0,
                -0.22024382650852203,
                -0.30166828632354736
            ]
        }
    ],
    "meshes" : [
        {
            "name" : "Cylinder.004",
            "primitives" : [
                {
                    "attributes" : {
                        "POSITION" : 0,
                        "NORMAL" : 1,
                        "TEXCOORD_0" : 2
                    },
                    "indices" : 3
                }
            ]
        }
    ],
    "accessors" : [
        {
            "bufferView" : 0,
            "componentType" : 5126,
            "count" : 2398,
            "max" : [
                0.32918787002563477,
                0.7924628853797913,
                2.4198427200317383
            ],
            "min" : [
                -0.32918787002563477,
                -0.669247567653656,
                -2.3080170154571533
            ],
            "type" : "VEC3"
        },
        {
            "bufferView" : 1,
            "componentType" : 5126,
            "count" : 2398,
            "type" : "VEC3"
        },
        {
            "bufferView" : 2,
            "componentType" : 5126,
            "count" : 2398,
            "type" : "VEC2"
        },
        {
            "bufferView" : 3,
            "componentType" : 5123,
            "count" : 4020,
            "type" : "SCALAR"
        }
    ],
    "bufferViews" : [
        {
            "buffer" : 0,
            "byteLength" : 28776,
            "byteOffset" : 0
        },
        {
            "buffer" : 0,
            "byteLength" : 28776,
            "byteOffset" : 28776
        },
        {
            "buffer" : 0,
            "byteLength" : 19184,
            "byteOffset" : 57552
        },
        {
            "buffer" : 0,
            "byteLength" : 8040,
            "byteOffset" : 76736
        }
    ],
    "buffers" : [
        {
            "byteLength" : 84776,
            "uri" : "data:application/octet-stream;base64,"
        }
    ]
}
