{
    "asset" : {
        "generator" : "Khronos glTF Blender I/O v1.3.48",
        "version" : "2.0"
    },
    "scene" : 0,
    "scenes" : [
        {
            "name" : "Scene",
            "nodes" : [
                0
            ]
        }
    ],
    "nodes" : [
        {
            "mesh" : 0,
            "name" : "Robot"
        }
    ],
    "meshes" : [
        {
            "name" : "Cylinder.002",
            "primitives" : [
                {
                    "attributes" : {
                        "POSITION" : 0,
                        "NORMAL" : 1,
                        "TEXCOORD_0" : 2
                    },
                    "indices" : 3
                }
            ]
        }
    ],
    "accessors" : [
        {
            "bufferView" : 0,
            "componentType" : 5126,
            "count" : 821,
            "max" : [
                6.3776350021362305,
                5.00745964050293,
                2.3828799724578857
            ],
            "min" : [
                -5.720318794250488,
                -4.006678581237793,
                -2.367006540298462
            ],
            "type" : "VEC3"
        },
        {
            "bufferView" : 1,
            "componentType" : 5126,
            "count" : 821,
            "type" : "VEC3"
        },
        {
            "bufferView" : 2,
            "componentType" : 5126,
            "count" : 821,
            "type" : "VEC2"
        },
        {
            "bufferView" : 3,
            "componentType" : 5123,
            "count" : 2148,
            "type" : "SCALAR"
        }
    ],
    "bufferViews" : [
        {
            "buffer" : 0,
            "byteLength" : 9852,
            "byteOffset" : 0
        },
        {
            "buffer" : 0,
            "byteLength" : 9852,
            "byteOffset" : 9852
        },
        {
            "buffer" : 0,
            "byteLength" : 6568,
            "byteOffset" : 19704
        },
        {
            "buffer" : 0,
            "byteLength" : 4296,
            "byteOffset" : 26272
        }
    ],
    "buffers" : [
        {
            "byteLength" : 30568,
            "uri" : "data:application/octet-stream;base64,"
        }
    ]
}
