{
    "asset" : {
        "generator" : "Khronos glTF Blender I/O v1.3.48",
        "version" : "2.0"
    },
    "scene" : 0,
    "scenes" : [
        {
            "name" : "Scene",
            "nodes" : [
                0
            ]
        }
    ],
    "nodes" : [
        {
            "mesh" : 0,
            "name" : "Blender_Liquid"
        }
    ],
    "meshes" : [
        {
            "name" : "Cylinder.010",
            "primitives" : [
                {
                    "attributes" : {
                        "POSITION" : 0,
                        "NORMAL" : 1,
                        "TEXCOORD_0" : 2
                    },
                    "indices" : 3
                }
            ]
        }
    ],
    "accessors" : [
        {
            "bufferView" : 0,
            "componentType" : 5126,
            "count" : 421,
            "max" : [
                1.421162724494934,
                1.5617668628692627,
                1.3627266883850098
            ],
            "min" : [
                -1.4445096254348755,
                -1.2857381105422974,
                -1.5026147365570068
            ],
            "type" : "VEC3"
        },
        {
            "bufferView" : 1,
            "componentType" : 5126,
            "count" : 421,
            "type" : "VEC3"
        },
        {
            "bufferView" : 2,
            "componentType" : 5126,
            "count" : 421,
            "type" : "VEC2"
        },
        {
            "bufferView" : 3,
            "componentType" : 5123,
            "count" : 2010,
            "type" : "SCALAR"
        }
    ],
    "bufferViews" : [
        {
            "buffer" : 0,
            "byteLength" : 5052,
            "byteOffset" : 0
        },
        {
            "buffer" : 0,
            "byteLength" : 5052,
            "byteOffset" : 5052
        },
        {
            "buffer" : 0,
            "byteLength" : 3368,
            "byteOffset" : 10104
        },
        {
            "buffer" : 0,
            "byteLength" : 4020,
            "byteOffset" : 13472
        }
    ],
    "buffers" : [
        {
            "byteLength" : 17492,
            "uri" : "data:application/octet-stream;base64,"
        }
    ]
}
