{
    "asset" : {
        "generator" : "Khronos glTF Blender I/O v1.3.48",
        "version" : "2.0"
    },
    "scene" : 0,
    "scenes" : [
        {
            "name" : "Scene",
            "nodes" : [
                0
            ]
        }
    ],
    "nodes" : [
        {
            "mesh" : 0,
            "name" : "S_Blender_Liquid"
        }
    ],
    "meshes" : [
        {
            "name" : "Cylinder.011",
            "primitives" : [
                {
                    "attributes" : {
                        "POSITION" : 0,
                        "NORMAL" : 1,
                        "TEXCOORD_0" : 2
                    },
                    "indices" : 3
                }
            ]
        }
    ],
    "accessors" : [
        {
            "bufferView" : 0,
            "componentType" : 5126,
            "count" : 421,
            "max" : [
                1.617161750793457,
                1.5157723426818848,
                1.6171618700027466
            ],
            "min" : [
                -1.6171621084213257,
                -0.09155276417732239,
                -1.617161750793457
            ],
            "type" : "VEC3"
        },
        {
            "bufferView" : 1,
            "componentType" : 5126,
            "count" : 421,
            "type" : "VEC3"
        },
        {
            "bufferView" : 2,
            "componentType" : 5126,
            "count" : 421,
            "type" : "VEC2"
        },
        {
            "bufferView" : 3,
            "componentType" : 5123,
            "count" : 1914,
            "type" : "SCALAR"
        }
    ],
    "bufferViews" : [
        {
            "buffer" : 0,
            "byteLength" : 5052,
            "byteOffset" : 0
        },
        {
            "buffer" : 0,
            "byteLength" : 5052,
            "byteOffset" : 5052
        },
        {
            "buffer" : 0,
            "byteLength" : 3368,
            "byteOffset" : 10104
        },
        {
            "buffer" : 0,
            "byteLength" : 3828,
            "byteOffset" : 13472
        }
    ],
    "buffers" : [
        {
            "byteLength" : 17300,
            "uri" : "data:application/octet-stream;base64,"
        }
    ]
}
