{
    "asset" : {
        "generator" : "Khronos glTF Blender I/O v1.3.48",
        "version" : "2.0"
    },
    "scene" : 0,
    "scenes" : [
        {
            "name" : "Scene",
            "nodes" : [
                0
            ]
        }
    ],
    "nodes" : [
        {
            "mesh" : 0,
            "name" : "S_Dzban_Part2"
        }
    ],
    "meshes" : [
        {
            "name" : "Cylinder.008",
            "primitives" : [
                {
                    "attributes" : {
                        "POSITION" : 0,
                        "NORMAL" : 1,
                        "TEXCOORD_0" : 2
                    },
                    "indices" : 3
                }
            ]
        }
    ],
    "accessors" : [
        {
            "bufferView" : 0,
            "componentType" : 5126,
            "count" : 733,
            "max" : [
                2.0311124324798584,
                3.145061731338501,
                2.0311119556427
            ],
            "min" : [
                -3.0744948387145996,
                -0.5,
                -2.031111717224121
            ],
            "type" : "VEC3"
        },
        {
            "bufferView" : 1,
            "componentType" : 5126,
            "count" : 733,
            "type" : "VEC3"
        },
        {
            "bufferView" : 2,
            "componentType" : 5126,
            "count" : 733,
            "type" : "VEC2"
        },
        {
            "bufferView" : 3,
            "componentType" : 5123,
            "count" : 1992,
            "type" : "SCALAR"
        }
    ],
    "bufferViews" : [
        {
            "buffer" : 0,
            "byteLength" : 8796,
            "byteOffset" : 0
        },
        {
            "buffer" : 0,
            "byteLength" : 8796,
            "byteOffset" : 8796
        },
        {
            "buffer" : 0,
            "byteLength" : 5864,
            "byteOffset" : 17592
        },
        {
            "buffer" : 0,
            "byteLength" : 3984,
            "byteOffset" : 23456
        }
    ],
    "buffers" : [
        {
            "byteLength" : 27440,
            "uri" : "data:application/octet-stream;base64,"
        }
    ]
}
