{
    "asset" : {
        "generator" : "Khronos glTF Blender I/O v1.3.48",
        "version" : "2.0"
    },
    "scene" : 0,
    "scenes" : [
        {
            "name" : "Scene",
            "nodes" : [
                0
            ]
        }
    ],
    "nodes" : [
        {
            "mesh" : 0,
            "name" : "S_Dzban_Part1"
        }
    ],
    "meshes" : [
        {
            "name" : "Cylinder.007",
            "primitives" : [
                {
                    "attributes" : {
                        "POSITION" : 0,
                        "NORMAL" : 1,
                        "TEXCOORD_0" : 2
                    },
                    "indices" : 3
                }
            ]
        }
    ],
    "accessors" : [
        {
            "bufferView" : 0,
            "componentType" : 5126,
            "count" : 355,
            "max" : [
                1.8850932121276855,
                2.4866745471954346,
                1.8850935697555542
            ],
            "min" : [
                -1.8850935697555542,
                -0.47619733214378357,
                -1.8850932121276855
            ],
            "type" : "VEC3"
        },
        {
            "bufferView" : 1,
            "componentType" : 5126,
            "count" : 355,
            "type" : "VEC3"
        },
        {
            "bufferView" : 2,
            "componentType" : 5126,
            "count" : 355,
            "type" : "VEC2"
        },
        {
            "bufferView" : 3,
            "componentType" : 5123,
            "count" : 1428,
            "type" : "SCALAR"
        }
    ],
    "bufferViews" : [
        {
            "buffer" : 0,
            "byteLength" : 4260,
            "byteOffset" : 0
        },
        {
            "buffer" : 0,
            "byteLength" : 4260,
            "byteOffset" : 4260
        },
        {
            "buffer" : 0,
            "byteLength" : 2840,
            "byteOffset" : 8520
        },
        {
            "buffer" : 0,
            "byteLength" : 2856,
            "byteOffset" : 11360
        }
    ],
    "buffers" : [
        {
            "byteLength" : 14216,
            "uri" : "data:application/octet-stream;base64,"
        }
    ]
}
