{
    "asset" : {
        "generator" : "Khronos glTF Blender I/O v1.3.48",
        "version" : "2.0"
    },
    "scene" : 0,
    "scenes" : [
        {
            "name" : "Scene",
            "nodes" : [
                0
            ]
        }
    ],
    "nodes" : [
        {
            "mesh" : 0,
            "name" : "Muffin"
        }
    ],
    "meshes" : [
        {
            "name" : "Cylinder",
            "primitives" : [
                {
                    "attributes" : {
                        "POSITION" : 0,
                        "NORMAL" : 1,
                        "TEXCOORD_0" : 2
                    },
                    "indices" : 3
                }
            ]
        }
    ],
    "accessors" : [
        {
            "bufferView" : 0,
            "componentType" : 5126,
            "count" : 1507,
            "max" : [
                1.2789822816848755,
                5.954857349395752,
                1.3026974201202393
            ],
            "min" : [
                -1.3019758462905884,
                -0.00018212199211120605,
                -1.3022438287734985
            ],
            "type" : "VEC3"
        },
        {
            "bufferView" : 1,
            "componentType" : 5126,
            "count" : 1507,
            "type" : "VEC3"
        },
        {
            "bufferView" : 2,
            "componentType" : 5126,
            "count" : 1507,
            "type" : "VEC2"
        },
        {
            "bufferView" : 3,
            "componentType" : 5123,
            "count" : 4398,
            "type" : "SCALAR"
        }
    ],
    "bufferViews" : [
        {
            "buffer" : 0,
            "byteLength" : 18084,
            "byteOffset" : 0
        },
        {
            "buffer" : 0,
            "byteLength" : 18084,
            "byteOffset" : 18084
        },
        {
            "buffer" : 0,
            "byteLength" : 12056,
            "byteOffset" : 36168
        },
        {
            "buffer" : 0,
            "byteLength" : 8796,
            "byteOffset" : 48224
        }
    ],
    "buffers" : [
        {
            "byteLength" : 57020,
            "uri" : "data:application/octet-stream;base64,"
        }
    ]
}
